<svg width="1244" height="909" viewBox="0 0 1244 909" fill="none" xmlns="http://www.w3.org/2000/svg">
<g clip-path="url(#clip0_1_257)">
<rect width="1244" height="909" fill="black"/>
<path d="M1246.33 100.859L1258.8 97.047L1262.61 109.516L1250.14 113.329L1246.33 100.859Z" fill="#FF21FB" fill-opacity="0.6"/>
<rect x="440" y="3" width="25.708" height="18.09" transform="rotate(130 440 3)" fill="#FFED36" fill-opacity="0.45"/>
<rect x="773" y="659" width="27.708" height="17.09" transform="rotate(-7 773 659)" fill="#480CA7" fill-opacity="0.75"/>
<rect x="292" y="669" width="24.708" height="16.09" transform="rotate(-62 292 669)" fill="#DCBCFA" fill-opacity="0.35"/>
<rect x="609" y="496" width="39.708" height="11.09" transform="rotate(-175 609 496)" fill="#9DED1A" fill-opacity="0.85"/>
<rect x="10" y="215" width="32.708" height="9.09" transform="rotate(-176 10 215)" fill="#FFED36"/>
<rect x="569" y="279" width="48.708" height="18.09" transform="rotate(-40 569 279)" fill="#F54721" fill-opacity="0.45"/>
<rect x="362" y="71" width="24.708" height="16.09" transform="rotate(154 362 71)" fill="#F62584" fill-opacity="0.85"/>
<rect x="513" y="26" width="38.708" height="12.09" transform="rotate(-88 513 26)" fill="#4BC8EF" fill-opacity="0.45"/>
<rect x="470" y="34" width="18.708" height="10.09" transform="rotate(101 470 34)" fill="#BA3E03" fill-opacity="0.9"/>
<rect x="282" y="896" width="12.708" height="9.09" transform="rotate(110 282 896)" fill="#DCBCFA" fill-opacity="0.6"/>
<rect x="155" y="466" width="40.708" height="12.09" transform="rotate(151 155 466)" fill="#480CA7" fill-opacity="0.6"/>
<rect x="259" y="151" width="13.708" height="14.09" transform="rotate(36 259 151)" fill="#9AF5FC" fill-opacity="0.9"/>
<rect x="1133" y="25" width="29.708" height="9.09" transform="rotate(25 1133 25)" fill="#9DED1A" fill-opacity="0.85"/>
<rect x="829" y="37" width="12.708" height="13.09" transform="rotate(-138 829 37)" fill="#DCBCFA" fill-opacity="0.6"/>
<rect x="464" y="641" width="12.708" height="11.09" transform="rotate(163 464 641)" fill="#C9FCBE" fill-opacity="0.65"/>
<rect x="504" y="703" width="32.708" height="13.09" transform="rotate(167 504 703)" fill="#C9FCBE" fill-opacity="0.85"/>
<circle cx="1085.11" cy="511.11" r="5.11" fill="#755FFE" fill-opacity="0.85"/>
<circle cx="26.61" cy="493.61" r="3.61" fill="#4BC8EF" fill-opacity="0.85"/>
<circle cx="120.61" cy="776.61" r="3.61" fill="#F62584"/>
<circle cx="943.61" cy="601.61" r="4.61" fill="#F62584" fill-opacity="0.85"/>
<circle cx="66.61" cy="58.61" r="6.61" fill="#755FFE"/>
<circle cx="927.11" cy="172.11" r="4.11" fill="#FC9E1C" fill-opacity="0.85"/>
<circle cx="712.11" cy="661.11" r="9.11" fill="#C9FCBE" fill-opacity="0.45"/>
<circle cx="15.11" cy="138.11" r="8.11" fill="#DCBCFA" fill-opacity="0.75"/>
<circle cx="1090.11" cy="707.11" r="6.11" fill="#FFED36" fill-opacity="0.85"/>
<circle cx="1198.61" cy="423.61" r="7.61" fill="#4BC8EF" fill-opacity="0.65"/>
<circle cx="447.11" cy="533.11" r="3.11" fill="#755FFE" fill-opacity="0.9"/>
<circle cx="1064.11" cy="631.11" r="9.11" fill="#F62584" fill-opacity="0.75"/>
<circle cx="1216.61" cy="828.61" r="6.61" fill="#755FFE" fill-opacity="0.85"/>
<circle cx="182.61" cy="680.61" r="5.61" fill="#FFED36" fill-opacity="0.6"/>
<circle cx="1215.11" cy="624.11" r="6.11" fill="#480CA7" fill-opacity="0.9"/>
<circle cx="581.61" cy="117.61" r="3.61" fill="#C9FCBE" fill-opacity="0.75"/>
<path d="M563.146 463.378L576.25 467.636L576.25 481.414L563.146 485.671L555.048 474.525L563.146 463.378Z" fill="#4BC8EF" fill-opacity="0.85"/>
<path d="M910.525 897.205L901.462 896.73L899.114 887.963L906.725 883.021L913.778 888.732L910.525 897.205Z" fill="#03A3F5" fill-opacity="0.9"/>
<path d="M227.504 66.7766L241.231 66.0572L241.951 79.7845L228.223 80.5039L227.504 66.7766Z" fill="#480CA7" fill-opacity="0.35"/>
<path d="M575.563 674.95L568.88 675.652L564.93 670.216L567.664 664.077L574.347 663.374L578.297 668.811L575.563 674.95Z" fill="#9DED1A" fill-opacity="0.9"/>
<path d="M1080.11 63.2537L1084.39 75.005L1072.07 72.8334L1080.11 63.2537Z" fill="#FF21FB"/>
<path d="M708.304 374.715L699.894 383.734L690.875 375.323L699.285 366.304L708.304 374.715Z" fill="#4BC8EF" fill-opacity="0.85"/>
<path d="M781.179 2.35396L782.059 -4.81223L788.705 -7.63331L794.471 -3.2882L793.591 3.87798L786.945 6.69906L781.179 2.35396Z" fill="#FC9E1C" fill-opacity="0.45"/>
<path d="M1176.72 146.187L1186.78 153.771L1182.68 165.687L1170.08 165.467L1166.4 153.415L1176.72 146.187Z" fill="#DCBCFA" fill-opacity="0.9"/>
<path d="M348.281 210.811L349.021 202.356L357.291 200.447L361.663 207.722L356.094 214.128L348.281 210.811Z" fill="#C9FCBE" fill-opacity="0.35"/>
<path d="M768.954 445.766L769.203 431.531L781.406 438.864L768.954 445.766Z" fill="#DCBCFA" fill-opacity="0.45"/>
<path d="M343.143 346.998L351.83 346.238L356.831 353.381L353.146 361.284L344.459 362.044L339.458 354.901L343.143 346.998Z" fill="#03A3F5" fill-opacity="0.35"/>
<path d="M339.005 441.668L329.782 433.651L332.114 421.656L343.668 417.677L352.89 425.694L350.559 437.69L339.005 441.668Z" fill="#FC9E1C" fill-opacity="0.6"/>
<path d="M1141.06 222.01L1136.04 216.816L1138.03 209.876L1145.04 208.129L1150.06 213.323L1148.07 220.263L1141.06 222.01Z" fill="#DCBCFA"/>
<path d="M1099.36 445.029L1110.68 442.414L1113.3 453.741L1101.97 456.356L1099.36 445.029Z" fill="#9AF5FC" fill-opacity="0.6"/>
<path d="M713.228 185.324L710.511 171.348L723.973 175.983L713.228 185.324Z" fill="#4BC8EF" fill-opacity="0.45"/>
<path d="M82.8774 199.258L86.3385 205.018L83.0806 210.896L76.3616 211.013L72.9005 205.253L76.1585 199.375L82.8774 199.258Z" fill="#DCBCFA" fill-opacity="0.35"/>
<path d="M629.318 500.749L635.093 494.989L629.523 489.031L637.398 491.152L639.773 483.349L641.874 491.23L649.819 489.386L644.045 495.146L649.615 501.104L641.739 498.983L639.364 506.786L637.263 498.905L629.318 500.749Z" fill="#4BC8EF"/>
<path d="M831.383 438.221L833.413 430.682L825.943 428.408L833.488 426.397L831.722 418.791L837.236 424.319L842.94 418.986L840.91 426.526L848.38 428.8L840.835 430.811L842.601 438.417L837.087 432.889L831.383 438.221Z" fill="#9DED1A" fill-opacity="0.9"/>
<path d="M375.18 281.36L371.156 278.02L366.001 278.9L369.341 274.876L368.46 269.721L372.485 273.061L377.64 272.18L374.3 276.205L375.18 281.36Z" fill="#C9FCBE" fill-opacity="0.6"/>
<path d="M541.076 531.28L536.602 528.994L534.171 533.391L533.915 528.373L528.891 528.467L533.108 525.736L530.515 521.432L534.989 523.719L537.42 519.321L537.676 524.339L542.7 524.245L538.483 526.977L541.076 531.28Z" fill="#4BC8EF" fill-opacity="0.85"/>
<path d="M203.975 316.333L204.827 324.44L212.801 326.135L205.354 329.45L206.206 337.558L200.751 331.5L193.304 334.815L197.38 327.756L191.925 321.698L199.899 323.392L203.975 316.333Z" fill="#F54721" fill-opacity="0.85"/>
<path d="M1228.43 218.514L1238.2 216.913L1243.34 208.454L1244.94 218.224L1253.4 223.368L1243.63 224.969L1238.49 233.427L1236.89 223.658L1228.43 218.514Z" fill="#F54721" fill-opacity="0.85"/>
<path d="M1040.71 657.352L1041.97 662.068L1046.85 662.323L1042.76 664.982L1044.02 669.698L1040.22 666.626L1036.13 669.285L1037.88 664.727L1034.09 661.654L1038.96 661.91L1040.71 657.352Z" fill="#FC9E1C" fill-opacity="0.45"/>
<path d="M1208.46 306.663L1203.21 300.688L1195.26 300.784L1201.23 295.534L1201.13 287.58L1206.38 293.555L1214.34 293.459L1208.36 298.709L1208.46 306.663Z" fill="#BA3E03"/>
<path d="M856.108 464.842L860.552 460.798L860.374 454.792L864.418 459.236L870.424 459.058L865.98 463.102L866.158 469.108L862.114 464.665L856.108 464.842Z" fill="#9AF5FC" fill-opacity="0.35"/>
<path d="M1123.51 510.293L1130.33 508.466L1130.7 501.413L1134.55 507.336L1141.37 505.508L1136.92 510.996L1140.77 516.919L1134.18 514.388L1129.73 519.876L1130.1 512.824L1123.51 510.293Z" fill="#FFED36" fill-opacity="0.35"/>
<path d="M394.291 677.596L392.503 671.86L386.985 669.483L392.721 667.695L395.099 662.177L396.886 667.913L402.404 670.291L396.668 672.078L394.291 677.596Z" fill="#03A3F5" fill-opacity="0.9"/>
<path d="M88.9386 768.955L87.5218 776.244L94.0161 779.843L86.6462 780.748L85.2294 788.037L82.0913 781.308L74.7214 782.213L80.1519 777.149L77.0138 770.419L83.5081 774.019L88.9386 768.955Z" fill="#9AF5FC" fill-opacity="0.85"/>
<path d="M1116.67 167.789L1120.77 166.384L1119.5 162.246L1122.76 165.09L1125.71 161.921L1124.88 166.169L1129.1 167.137L1125 168.542L1126.27 172.68L1123.01 169.836L1120.06 173.005L1120.89 168.757L1116.67 167.789Z" fill="#DCBCFA"/>
<path d="M190.586 670.694L186.091 672.602L186.517 677.466L183.314 673.781L178.82 675.689L181.334 671.504L178.131 667.819L182.888 668.917L185.403 664.732L185.828 669.596L190.586 670.694Z" fill="#480CA7" fill-opacity="0.75"/>
<path d="M1034.38 50.035L1029.15 50.4921L1027.97 55.6033L1025.92 50.7747L1020.69 51.2319L1024.65 47.7904L1022.6 42.9618L1027.1 45.6635L1031.06 42.2221L1029.88 47.3332L1034.38 50.035Z" fill="#03A3F5" fill-opacity="0.9"/>
<path d="M65.936 538.47L60.4953 533.791L53.4021 534.876L58.0808 529.435L56.9961 522.342L62.4368 527.021L69.5301 525.936L64.8514 531.377L65.936 538.47Z" fill="#9AF5FC" fill-opacity="0.35"/>
<rect x="444" y="703" width="25.708" height="14.09" transform="rotate(-28 444 703)" fill="#480CA7" fill-opacity="0.6"/>
<rect x="192" y="335" width="33.708" height="11.09" transform="rotate(-90 192 335)" fill="#755FFE"/>
<rect x="376" y="383" width="22.708" height="13.09" transform="rotate(19 376 383)" fill="#FF21FB" fill-opacity="0.85"/>
<rect x="1020" y="364" width="9.708" height="19.09" transform="rotate(-133 1020 364)" fill="#F62584" fill-opacity="0.9"/>
<rect x="1101" y="156" width="49.708" height="14.09" transform="rotate(32 1101 156)" fill="#C9FCBE" fill-opacity="0.75"/>
<rect x="34" y="799" width="18.708" height="18.09" transform="rotate(11 34 799)" fill="#FC9E1C" fill-opacity="0.45"/>
<rect x="914" y="257" width="32.708" height="9.09" transform="rotate(-118 914 257)" fill="#480CA7"/>
<rect x="458" y="374" width="14.708" height="12.09" transform="rotate(-21 458 374)" fill="#DCBCFA" fill-opacity="0.9"/>
<rect x="708" y="303" width="14.708" height="17.09" transform="rotate(-103 708 303)" fill="#C9FCBE" fill-opacity="0.45"/>
<rect x="902" y="665" width="24.708" height="10.09" transform="rotate(134 902 665)" fill="#F54721" fill-opacity="0.6"/>
<rect x="533" y="690" width="45.708" height="16.09" transform="rotate(-161 533 690)" fill="#03A3F5"/>
<rect x="684" y="354" width="47.708" height="18.09" transform="rotate(163 684 354)" fill="#BA3E03" fill-opacity="0.75"/>
<rect x="728" y="374" width="14.708" height="17.09" transform="rotate(24 728 374)" fill="#FF21FB" fill-opacity="0.85"/>
<rect x="870" y="413" width="35.708" height="11.09" transform="rotate(-81 870 413)" fill="#03A3F5" fill-opacity="0.45"/>
<rect x="1236" y="9" width="40.708" height="15.09" transform="rotate(-84 1236 9)" fill="#755FFE" fill-opacity="0.45"/>
<rect x="461" y="152" width="29.708" height="18.09" transform="rotate(45 461 152)" fill="#755FFE" fill-opacity="0.35"/>
<rect x="100" y="103" width="40.708" height="15.09" transform="rotate(-150 100 103)" fill="#DCBCFA"/>
<rect x="897" y="782" width="29.708" height="10.09" transform="rotate(-33 897 782)" fill="#C9FCBE" fill-opacity="0.85"/>
<rect x="447" y="24" width="47.708" height="12.09" transform="rotate(52 447 24)" fill="#F54721" fill-opacity="0.9"/>
<rect x="531" y="100" width="18.708" height="9.09" transform="rotate(-5 531 100)" fill="#BA3E03" fill-opacity="0.75"/>
<rect x="513" y="621" width="13.708" height="12.09" transform="rotate(98 513 621)" fill="#4BC8EF" fill-opacity="0.35"/>
<rect x="26" y="68" width="18.708" height="12.09" transform="rotate(108 26 68)" fill="#C9FCBE" fill-opacity="0.75"/>
<rect x="531" y="860" width="17.708" height="9.09" transform="rotate(132 531 860)" fill="#BA3E03"/>
<rect x="400" y="623" width="47.708" height="17.09" transform="rotate(152 400 623)" fill="#755FFE"/>
<rect x="1211" y="131" width="22.708" height="17.09" transform="rotate(120 1211 131)" fill="#9DED1A" fill-opacity="0.65"/>
<rect x="1162" y="842" width="22.708" height="12.09" transform="rotate(-117 1162 842)" fill="#9AF5FC" fill-opacity="0.65"/>
<rect x="360" y="48" width="28.708" height="11.09" transform="rotate(68 360 48)" fill="#FFED36" fill-opacity="0.9"/>
<rect x="707" y="47" width="27.708" height="12.09" transform="rotate(-32 707 47)" fill="#9DED1A" fill-opacity="0.45"/>
<rect x="131" y="598" width="38.708" height="9.09" transform="rotate(-101 131 598)" fill="#4BC8EF" fill-opacity="0.85"/>
<circle cx="192.11" cy="404.11" r="8.11" fill="#4BC8EF" fill-opacity="0.45"/>
<circle cx="132.11" cy="272.11" r="6.11" fill="#9AF5FC" fill-opacity="0.65"/>
<circle cx="888.11" cy="531.11" r="4.11" fill="#FFED36" fill-opacity="0.75"/>
<circle cx="864.11" cy="523.11" r="4.11" fill="#480CA7" fill-opacity="0.6"/>
<circle cx="571.11" cy="242.11" r="6.11" fill="#9AF5FC" fill-opacity="0.85"/>
<circle cx="394.61" cy="120.61" r="7.61" fill="#FF21FB" fill-opacity="0.85"/>
<circle cx="134.61" cy="651.61" r="6.61" fill="#DCBCFA" fill-opacity="0.45"/>
<circle cx="1127.61" cy="396.61" r="9.61" fill="#FC9E1C" fill-opacity="0.6"/>
<circle cx="651.11" cy="480.11" r="3.11" fill="#4BC8EF" fill-opacity="0.45"/>
<circle cx="283.61" cy="65.61" r="6.61" fill="#4BC8EF" fill-opacity="0.45"/>
<circle cx="1235.11" cy="749.11" r="6.11" fill="#FFED36" fill-opacity="0.65"/>
<circle cx="487.11" cy="456.11" r="8.11" fill="#480CA7" fill-opacity="0.45"/>
<circle cx="405.11" cy="693.11" r="4.11" fill="#C9FCBE" fill-opacity="0.65"/>
<circle cx="353.61" cy="473.61" r="9.61" fill="#480CA7" fill-opacity="0.85"/>
<circle cx="983.61" cy="649.61" r="8.61" fill="#C9FCBE" fill-opacity="0.65"/>
<circle cx="1016.61" cy="74.61" r="9.61" fill="#9AF5FC" fill-opacity="0.9"/>
<circle cx="67.61" cy="7.61" r="6.61" fill="#480CA7" fill-opacity="0.45"/>
<circle cx="753.11" cy="203.11" r="9.11" fill="#FFED36" fill-opacity="0.6"/>
<circle cx="565.11" cy="686.11" r="9.11" fill="#FFED36" fill-opacity="0.45"/>
<circle cx="602.61" cy="89.61" r="3.61" fill="#480CA7" fill-opacity="0.65"/>
<circle cx="433.11" cy="873.11" r="9.11" fill="#FC9E1C"/>
<circle cx="1200.61" cy="807.61" r="3.61" fill="#F62584" fill-opacity="0.75"/>
<circle cx="953.61" cy="95.61" r="6.61" fill="#F54721" fill-opacity="0.75"/>
<circle cx="26.61" cy="183.61" r="4.61" fill="#C9FCBE" fill-opacity="0.85"/>
<circle cx="602.61" cy="530.61" r="4.61" fill="#BA3E03"/>
<circle cx="997.61" cy="736.61" r="8.61" fill="#C9FCBE" fill-opacity="0.85"/>
<circle cx="276.61" cy="875.61" r="4.61" fill="#BA3E03" fill-opacity="0.9"/>
<circle cx="716.11" cy="78.11" r="7.11" fill="#FF21FB" fill-opacity="0.65"/>
<circle cx="1180.61" cy="167.61" r="3.61" fill="#C9FCBE" fill-opacity="0.75"/>
<path d="M1176.97 19.3207L1157.36 24.5746L1162.61 4.96664L1176.97 19.3207Z" fill="#480CA7" fill-opacity="0.9"/>
<path d="M289.354 214.165L276.082 212.536L284.129 201.857L289.354 214.165Z" fill="#9AF5FC" fill-opacity="0.9"/>
<path d="M568.065 752.225L578.863 757.492L577.191 769.389L565.359 771.476L559.719 760.868L568.065 752.225Z" fill="#FC9E1C" fill-opacity="0.9"/>
<path d="M246.287 673.136L245.271 663.47L253.134 657.756L262.014 661.71L263.03 671.377L255.166 677.09L246.287 673.136Z" fill="#480CA7" fill-opacity="0.85"/>
<path d="M944.18 428.64L940.967 421.423L946.838 416.137L953.679 420.087L952.037 427.814L944.18 428.64Z" fill="#DCBCFA" fill-opacity="0.6"/>
<path d="M1055.04 750.574L1059.5 742.183L1067.89 746.644L1063.43 755.035L1055.04 750.574Z" fill="#BA3E03" fill-opacity="0.65"/>
<path d="M349.321 295.066L340.539 288.917L341.474 278.238L351.189 273.707L359.971 279.856L359.036 290.535L349.321 295.066Z" fill="#FC9E1C" fill-opacity="0.85"/>
<path d="M353.477 99.0607L351.496 113.16L340.277 104.394L353.477 99.0607Z" fill="#9AF5FC" fill-opacity="0.6"/>
<path d="M737.622 394.162L739.544 400.078L735.382 404.7L729.298 403.407L727.376 397.491L731.538 392.869L737.622 394.162Z" fill="#4BC8EF" fill-opacity="0.6"/>
<path d="M1197.28 866L1186.26 859.64V846.92L1197.28 840.56L1208.3 846.92V859.64L1197.28 866Z" fill="#DCBCFA" fill-opacity="0.65"/>
<path d="M731.299 721.958L723.64 734.215L711.383 726.556L719.042 714.299L731.299 721.958Z" fill="#FC9E1C" fill-opacity="0.6"/>
<path d="M180.051 303.544L178.432 311.875L170.007 312.91L166.42 305.217L172.628 299.429L180.051 303.544Z" fill="#BA3E03" fill-opacity="0.85"/>
<path d="M923.802 144.165L918.079 159.074L908.029 146.663L923.802 144.165Z" fill="#4BC8EF"/>
<path d="M201.202 892.053L206.351 879.307L219.097 884.457L213.947 897.202L201.202 892.053Z" fill="#4BC8EF"/>
<path d="M986.705 130.713L987.752 142.682L976.693 147.376L968.811 138.309L974.999 128.01L986.705 130.713Z" fill="#F62584" fill-opacity="0.6"/>
<path d="M180.252 432.694L168.811 442.64L158.864 431.198L170.306 421.252L180.252 432.694Z" fill="#FF21FB" fill-opacity="0.45"/>
<path d="M636.196 64.8151L641.779 55.5245L652.34 57.9626L653.284 68.7602L643.307 72.9952L636.196 64.8151Z" fill="#FC9E1C" fill-opacity="0.6"/>
<path d="M35.7856 27.3218L26.2495 18.4292L35.1421 8.89301L44.6782 17.7856L35.7856 27.3218Z" fill="#FFED36" fill-opacity="0.45"/>
<path d="M266.939 85.7196L256.464 89.7405L247.745 82.6795L249.5 71.5976L259.975 67.5767L268.694 74.6377L266.939 85.7196Z" fill="#C9FCBE" fill-opacity="0.85"/>
<path d="M707.131 408.026L712.237 399.183L721.079 404.289L715.974 413.131L707.131 408.026Z" fill="#F54721" fill-opacity="0.45"/>
<path d="M465.473 202.791L455.155 188.056L469.891 177.738L480.209 192.473L465.473 202.791Z" fill="#480CA7"/>
<path d="M1208.94 836.596L1207.17 844.898L1198.73 845.785L1195.28 838.031L1201.59 832.352L1208.94 836.596Z" fill="#FF21FB" fill-opacity="0.9"/>
<path d="M436.782 840.804L426.248 832.866L430.542 820.395L443.73 820.625L447.586 833.239L436.782 840.804Z" fill="#4BC8EF" fill-opacity="0.45"/>
<path d="M854.437 15.0501L863.823 16.5368L862.336 25.9233L852.95 24.4366L854.437 15.0501Z" fill="#F62584" fill-opacity="0.75"/>
<path d="M1097.29 83.5254L1118.46 83.8948L1107.56 102.037L1097.29 83.5254Z" fill="#FC9E1C" fill-opacity="0.35"/>
<path d="M1045.25 658.446L1046.04 669.845L1035.45 674.125L1028.11 665.372L1034.16 655.682L1045.25 658.446Z" fill="#FC9E1C"/>
<path d="M839.46 670.852L844.323 677.077L839.906 683.627L832.312 681.449L832.036 673.554L839.46 670.852Z" fill="#C9FCBE" fill-opacity="0.85"/>
<path d="M1106.61 309.283L1121.94 305.176L1126.04 320.503L1110.72 324.61L1106.61 309.283Z" fill="#755FFE" fill-opacity="0.45"/>
<path d="M589.626 74.2865L596.945 71.6227L596.673 63.8389L601.468 69.9764L608.787 67.3125L604.432 73.7695L609.227 79.907L601.74 77.7601L597.385 84.2171L597.113 76.4333L589.626 74.2865Z" fill="#F62584" fill-opacity="0.35"/>
<path d="M509.905 108.111L510.229 113.721L514.698 117.126L509.088 117.45L505.683 121.92L505.359 116.31L500.889 112.905L506.499 112.58L509.905 108.111Z" fill="#F54721" fill-opacity="0.6"/>
<path d="M469.181 678.33L473.488 676.508L471.807 672.144L475.538 674.963L478.477 671.325L477.901 675.966L482.521 676.692L478.214 678.514L479.895 682.878L476.164 680.059L473.225 683.697L473.801 679.056L469.181 678.33Z" fill="#9DED1A" fill-opacity="0.45"/>
<path d="M150.542 441.035L152.174 450.009L160.049 454.612L151.074 456.244L146.472 464.119L144.84 455.145L136.965 450.542L145.939 448.91L150.542 441.035Z" fill="#F54721" fill-opacity="0.45"/>
<path d="M429.164 881.075L422.475 887.836L423.254 897.315L416.493 890.626L407.014 891.404L413.703 884.643L412.925 875.164L419.686 881.853L429.164 881.075Z" fill="#C9FCBE" fill-opacity="0.65"/>
<path d="M598.219 131.109L599.54 135.43L604.059 135.509L600.357 138.101L601.678 142.423L598.069 139.703L594.367 142.295L595.838 138.022L592.229 135.303L596.748 135.381L598.219 131.109Z" fill="#03A3F5" fill-opacity="0.6"/>
<path d="M647.05 479.563L649.92 475.613L647.05 471.664L651.693 473.172L654.563 469.222L654.563 474.105L659.207 475.613L654.563 477.122L654.563 482.005L651.693 478.055L647.05 479.563Z" fill="#4BC8EF" fill-opacity="0.45"/>
<path d="M167.044 467.633L171.661 469.223L174.599 465.323L174.514 470.205L179.13 471.795L174.461 473.222L174.376 478.104L171.575 474.104L166.906 475.532L169.845 471.633L167.044 467.633Z" fill="#9DED1A" fill-opacity="0.35"/>
<path d="M863.359 549.359L867.491 541.926L860.196 537.556L868.699 537.418L868.837 528.915L873.208 536.21L880.641 532.077L876.509 539.51L883.804 543.881L875.301 544.019L875.163 552.522L870.792 545.227L863.359 549.359Z" fill="#FF21FB" fill-opacity="0.35"/>
<path d="M110.129 831.511L114.492 839.962L123.747 842.15L115.296 846.513L113.107 855.769L108.744 847.318L99.4892 845.129L107.94 840.766L110.129 831.511Z" fill="#9AF5FC" fill-opacity="0.75"/>
<path d="M91.5633 344.582L86.6576 349.662L89.973 355.898L83.6257 352.802L78.72 357.882L79.7029 350.889L73.3556 347.793L80.3103 346.566L81.2932 339.573L84.6086 345.809L91.5633 344.582Z" fill="#BA3E03" fill-opacity="0.6"/>
<path d="M481.936 501.53L483.021 494.437L478.342 488.996L485.435 490.081L490.876 485.402L489.791 492.495L494.47 497.936L487.377 496.851L481.936 501.53Z" fill="#9DED1A" fill-opacity="0.85"/>
<path d="M722.809 377.436L716.299 372.53L709.621 377.205L712.275 369.498L705.765 364.592L713.915 364.734L716.569 357.026L718.953 364.822L727.103 364.964L720.426 369.64L722.809 377.436Z" fill="#9DED1A" fill-opacity="0.65"/>
<path d="M571.439 295.295L578.496 292.875L576.306 285.743L581.93 290.645L587.011 285.182L585.578 292.504L592.85 294.173L585.793 296.593L587.983 303.724L582.359 298.823L577.277 304.285L578.71 296.964L571.439 295.295Z" fill="#FFED36" fill-opacity="0.9"/>
<path d="M614.754 399.144L607.466 400.561L606.561 407.931L602.961 401.436L595.672 402.853L600.736 397.423L597.136 390.928L603.866 394.066L608.93 388.636L608.025 396.006L614.754 399.144Z" fill="#F54721"/>
<path d="M930.262 242.681L935.326 248.111L942.056 244.973L938.456 251.468L943.52 256.898L936.231 255.481L932.632 261.976L931.727 254.606L924.438 253.189L931.167 250.051L930.262 242.681Z" fill="#C9FCBE" fill-opacity="0.85"/>
<path d="M1096.11 596.095L1101.36 596.004L1102.89 590.988L1104.6 595.947L1109.84 595.856L1105.65 599.013L1107.36 603.973L1103.06 600.964L1098.87 604.121L1100.41 599.104L1096.11 596.095Z" fill="#9DED1A" fill-opacity="0.45"/>
<path d="M310.264 516.739L311.447 510.079L304.828 508.681L311.188 506.375L309.089 499.945L314.266 504.299L318.786 499.266L317.603 505.927L324.221 507.325L317.862 509.63L319.96 516.061L314.784 511.706L310.264 516.739Z" fill="#C9FCBE" fill-opacity="0.45"/>
<path d="M865.251 278.682L863.406 286.627L871.287 288.728L863.484 291.103L865.605 298.979L859.647 293.408L853.887 299.183L855.731 291.238L847.85 289.137L855.653 286.762L853.532 278.887L859.49 284.457L865.251 278.682Z" fill="#FFED36"/>
<path d="M601.345 138.249L592.769 135.951L587.933 143.397L587.469 134.53L578.893 132.233L587.181 129.051L586.717 120.185L592.304 127.084L600.593 123.903L595.757 131.349L601.345 138.249Z" fill="#DCBCFA"/>
<path d="M1144.62 618.854L1153.14 618.854L1155.77 610.755L1158.4 618.854L1166.91 618.854L1160.03 623.859L1162.66 631.957L1155.77 626.952L1148.88 631.957L1151.51 623.859L1144.62 618.854Z" fill="#DCBCFA" fill-opacity="0.85"/>
<path d="M805.664 261.843L806.176 253.906L800.484 248.35L808.421 248.862L813.977 243.17L813.465 251.108L819.157 256.664L811.219 256.151L805.664 261.843Z" fill="#480CA7" fill-opacity="0.85"/>
<path d="M1015.86 872.541L1016.4 879.697L1022.18 883.946L1015.03 884.484L1010.78 890.267L1010.24 883.112L1004.46 878.863L1011.61 878.324L1015.86 872.541Z" fill="#FFED36" fill-opacity="0.85"/>
<path d="M759.501 135.938L764.718 135.389L765.809 130.258L767.942 135.051L773.159 134.502L769.261 138.012L771.394 142.804L766.852 140.182L762.953 143.692L764.044 138.561L759.501 135.938Z" fill="#FFED36" fill-opacity="0.35"/>
<path d="M839.476 835.828L839.241 843.779L845.123 849.133L837.173 848.898L831.819 854.78L832.054 846.83L826.172 841.476L834.122 841.711L839.476 835.828Z" fill="#FC9E1C" fill-opacity="0.6"/>
<path d="M767.718 127.795L770.49 135.847L779.004 135.698L772.204 140.823L774.976 148.874L768.001 143.99L761.2 149.114L763.69 140.971L756.715 136.087L765.229 135.938L767.718 127.795Z" fill="#DCBCFA" fill-opacity="0.45"/>
<path d="M904.705 832.306L909.701 832.837L910.394 827.861L912.432 832.453L917.088 830.565L914.13 834.627L918.093 837.715L913.097 837.184L912.404 842.16L910.366 837.567L905.709 839.455L908.668 835.394L904.705 832.306Z" fill="#FFED36" fill-opacity="0.75"/>
<path d="M827.151 746.838L834.769 749.123L841.463 744.826L839.178 752.445L843.475 759.139L835.856 756.854L829.162 761.151L831.447 753.532L827.151 746.838Z" fill="#FFED36"/>
<path d="M793.216 451.235L788.413 457.828L794.847 462.841L786.736 461.979L785.611 470.057L782.303 462.602L774.745 465.667L779.547 459.074L773.113 454.061L781.224 454.923L782.349 446.845L785.657 454.3L793.216 451.235Z" fill="#C9FCBE"/>
</g>
<defs>
<clipPath id="clip0_1_257">
<rect width="1244" height="909" fill="white"/>
</clipPath>
</defs>
</svg>
