<svg width="119" height="16" viewBox="0 0 119 16" fill="none" xmlns="http://www.w3.org/2000/svg">
<g clip-path="url(#clip0_41_513)">
<rect width="16" height="16" rx="4" fill="#DCF2EA"/>
<path d="M11 5.375C10.79 5.375 10.6025 5.4575 10.4675 5.5925L7.25 8.8175L5.5325 7.0925C5.3975 6.9575 5.21 6.875 5 6.875C4.5875 6.875 4.25 7.2125 4.25 7.625C4.25 7.835 4.3325 8.0225 4.4675 8.1575L6.7175 10.4075C6.8525 10.5425 7.04 10.625 7.25 10.625C7.46 10.625 7.6475 10.5425 7.7825 10.4075L11.5325 6.6575C11.6675 6.5225 11.75 6.335 11.75 6.125C11.75 5.7125 11.4125 5.375 11 5.375Z" fill="#52BD94"/>
<path d="M26.8008 12H28.043L29.8535 5.67773H29.9355L31.752 12H32.9883L35.2734 3.54492H33.9082L32.3613 10.1191H32.2793L30.5039 3.54492H29.2852L27.5215 10.1191H27.4395L25.8867 3.54492H24.5215L26.8008 12ZM38.7773 12.123C40.6406 12.123 41.7832 10.875 41.7832 8.82422V8.8125C41.7832 6.76172 40.6348 5.51367 38.7773 5.51367C36.9141 5.51367 35.7656 6.76758 35.7656 8.8125V8.82422C35.7656 10.875 36.9082 12.123 38.7773 12.123ZM38.7773 11.0625C37.6816 11.0625 37.0664 10.2363 37.0664 8.82422V8.8125C37.0664 7.40039 37.6816 6.57422 38.7773 6.57422C39.8672 6.57422 40.4883 7.40039 40.4883 8.8125V8.82422C40.4883 10.2305 39.8672 11.0625 38.7773 11.0625ZM43.3008 12H44.5723V8.19727C44.5723 7.27734 45.2344 6.67969 46.207 6.67969C46.4473 6.67969 46.6641 6.70898 46.8926 6.75586V5.58398C46.7637 5.55469 46.541 5.52539 46.3359 5.52539C45.4863 5.52539 44.8945 5.92383 44.666 6.59766H44.5723V5.63672H43.3008V12ZM48.1641 12H49.4355V3.14062H48.1641V12ZM53.6484 12.1055C54.5391 12.1055 55.2363 11.6953 55.6055 10.998H55.7051V12H56.9707V3.14062H55.7051V6.64453H55.6055C55.2656 5.95898 54.5215 5.52539 53.6484 5.52539C52.0312 5.52539 51.0117 6.79688 51.0117 8.8125V8.82422C51.0117 10.8223 52.0488 12.1055 53.6484 12.1055ZM54.0117 11.0215C52.9453 11.0215 52.3066 10.1895 52.3066 8.82422V8.8125C52.3066 7.44727 52.9453 6.61523 54.0117 6.61523C55.0664 6.61523 55.7227 7.45312 55.7227 8.8125V8.82422C55.7227 10.1836 55.0723 11.0215 54.0117 11.0215ZM59.0098 12H60.3223V3.54492H59.0098V12ZM62.4434 12H65.4961C68.0156 12 69.4746 10.4414 69.4746 7.75781V7.74609C69.4746 5.0918 68.0039 3.54492 65.4961 3.54492H62.4434V12ZM63.7559 10.8691V4.67578H65.3496C67.1016 4.67578 68.1387 5.81836 68.1387 7.76367V7.77539C68.1387 9.73828 67.1191 10.8691 65.3496 10.8691H63.7559ZM76.8984 12H78.3457L81.3574 3.54492H79.9336L77.6719 10.418H77.5723L75.3105 3.54492H73.8867L76.8984 12ZM84.7266 12.123C86.3555 12.123 87.2344 11.1855 87.4453 10.3477L87.457 10.2949L86.2324 10.3008L86.209 10.3477C86.0566 10.6758 85.5703 11.0801 84.7559 11.0801C83.707 11.0801 83.0391 10.3711 83.0156 9.15234H87.5273V8.70703C87.5273 6.79688 86.4375 5.51367 84.6621 5.51367C82.8867 5.51367 81.7383 6.84375 81.7383 8.83008V8.83594C81.7383 10.8516 82.8633 12.123 84.7266 12.123ZM84.668 6.55664C85.5293 6.55664 86.168 7.10742 86.2676 8.24414H83.0332C83.1445 7.14844 83.8008 6.55664 84.668 6.55664ZM89.0391 12H90.3105V8.19727C90.3105 7.27734 90.9727 6.67969 91.9453 6.67969C92.1855 6.67969 92.4023 6.70898 92.6309 6.75586V5.58398C92.502 5.55469 92.2793 5.52539 92.0742 5.52539C91.2246 5.52539 90.6328 5.92383 90.4043 6.59766H90.3105V5.63672H89.0391V12ZM94.5059 4.5C94.9395 4.5 95.3027 4.14258 95.3027 3.70898C95.3027 3.26953 94.9395 2.91211 94.5059 2.91211C94.0664 2.91211 93.709 3.26953 93.709 3.70898C93.709 4.14258 94.0664 4.5 94.5059 4.5ZM93.8672 12H95.1328V5.63672H93.8672V12ZM97.4355 12H98.7012V6.63867H100.102V5.63672H98.6895V5.02734C98.6895 4.38281 98.9648 4.04297 99.668 4.04297C99.8672 4.04297 100.037 4.05469 100.154 4.07227V3.14062C99.9375 3.10547 99.6914 3.08203 99.4043 3.08203C98.0801 3.08203 97.4355 3.70312 97.4355 4.96875V5.63672H96.3867V6.63867H97.4355V12ZM102.193 4.5C102.627 4.5 102.99 4.14258 102.99 3.70898C102.99 3.26953 102.627 2.91211 102.193 2.91211C101.754 2.91211 101.396 3.26953 101.396 3.70898C101.396 4.14258 101.754 4.5 102.193 4.5ZM101.555 12H102.82V5.63672H101.555V12ZM107.344 12.123C108.973 12.123 109.852 11.1855 110.062 10.3477L110.074 10.2949L108.85 10.3008L108.826 10.3477C108.674 10.6758 108.188 11.0801 107.373 11.0801C106.324 11.0801 105.656 10.3711 105.633 9.15234H110.145V8.70703C110.145 6.79688 109.055 5.51367 107.279 5.51367C105.504 5.51367 104.355 6.84375 104.355 8.83008V8.83594C104.355 10.8516 105.48 12.123 107.344 12.123ZM107.285 6.55664C108.146 6.55664 108.785 7.10742 108.885 8.24414H105.65C105.762 7.14844 106.418 6.55664 107.285 6.55664ZM113.977 12.1055C114.867 12.1055 115.564 11.6953 115.934 10.998H116.033V12H117.299V3.14062H116.033V6.64453H115.934C115.594 5.95898 114.85 5.52539 113.977 5.52539C112.359 5.52539 111.34 6.79688 111.34 8.8125V8.82422C111.34 10.8223 112.377 12.1055 113.977 12.1055ZM114.34 11.0215C113.273 11.0215 112.635 10.1895 112.635 8.82422V8.8125C112.635 7.44727 113.273 6.61523 114.34 6.61523C115.395 6.61523 116.051 7.45312 116.051 8.8125V8.82422C116.051 10.1836 115.4 11.0215 114.34 11.0215Z" fill="#696F8C"/>
</g>
<defs>
<clipPath id="clip0_41_513">
<rect width="119" height="16" fill="white"/>
</clipPath>
</defs>
</svg>
